<svg width="12" height="12" viewBox="0 0 12 12" fill="none" xmlns="http://www.w3.org/2000/svg">
<path fill-rule="evenodd" clip-rule="evenodd" d="M0 6.00901C0 2.84827 2.526 0 6.012 0C9.42 0 12 2.79419 12 5.99099C12 9.69855 8.976 12 6 12C5.016 12 3.924 11.7356 3.048 11.2188C2.742 11.0325 2.484 10.8943 2.154 11.0025L0.942 11.363C0.636 11.4592 0.36 11.2188 0.45 10.8943L0.852 9.54832C0.918 9.36204 0.906 9.16375 0.81 9.00751C0.294 8.05809 0 7.01853 0 6.00901ZM5.21997 6.00905C5.21997 6.43569 5.56197 6.7782 5.98797 6.78421C6.41397 6.78421 6.75597 6.43569 6.75597 6.01506C6.75597 5.58842 6.41397 5.2459 5.98797 5.2459C5.56797 5.23989 5.21997 5.58842 5.21997 6.00905ZM7.98596 6.0151C7.98596 6.43573 8.32796 6.78426 8.75396 6.78426C9.17996 6.78426 9.52196 6.43573 9.52196 6.0151C9.52196 5.58846 9.17996 5.24595 8.75396 5.24595C8.32796 5.24595 7.98596 5.58846 7.98596 6.0151ZM3.22198 6.78421C2.80198 6.78421 2.45398 6.43568 2.45398 6.01505C2.45398 5.58841 2.79598 5.2459 3.22198 5.2459C3.64798 5.2459 3.98998 5.58841 3.98998 6.01505C3.98998 6.43568 3.64798 6.7782 3.22198 6.78421Z" fill="white"/>
</svg>
