<svg width="12" height="11" viewBox="0 0 12 11" fill="none" xmlns="http://www.w3.org/2000/svg">
<path fill-rule="evenodd" clip-rule="evenodd" d="M0 5.60382C0 2.94403 2.526 0.54718 6.012 0.54718C9.41999 0.54718 12 2.89852 12 5.58865C12 8.7086 8.97599 10.6453 6 10.6453C5.016 10.6453 3.924 10.4228 3.048 9.98793C2.742 9.83117 2.484 9.71487 2.154 9.80589L0.941999 10.1093C0.636 10.1902 0.36 9.98793 0.45 9.71487L0.851999 8.58218C0.917999 8.42543 0.905999 8.25856 0.809999 8.12709C0.294 7.32814 0 6.45334 0 5.60382ZM5.21997 5.60384C5.21997 5.96286 5.56197 6.25109 5.98797 6.25615C6.41397 6.25615 6.75597 5.96286 6.75597 5.6089C6.75597 5.24987 6.41397 4.96164 5.98797 4.96164C5.56797 4.95659 5.21997 5.24987 5.21997 5.60384ZM7.98596 5.60892C7.98596 5.96289 8.32796 6.25618 8.75396 6.25618C9.17996 6.25618 9.52196 5.96289 9.52196 5.60892C9.52196 5.2499 9.17996 4.96167 8.75396 4.96167C8.32796 4.96167 7.98596 5.2499 7.98596 5.60892ZM3.22198 6.25616C2.80198 6.25616 2.45398 5.96288 2.45398 5.60891C2.45398 5.24989 2.79598 4.96165 3.22198 4.96165C3.64798 4.96165 3.98998 5.24989 3.98998 5.60891C3.98998 5.96288 3.64798 6.25111 3.22198 6.25616Z" fill="#96A7AF"/>
</svg>
