<svg width="30" height="30" viewBox="0 0 30 30" fill="none" xmlns="http://www.w3.org/2000/svg">
<rect width="30" height="30" rx="10" fill="#3ED598"/>
<path fill-rule="evenodd" clip-rule="evenodd" d="M5 15C5 9.48 9.47 5 15 5C20.52 5 25 9.48 25 15C25 20.53 20.52 25 15 25C9.47 25 5 20.53 5 15ZM17.23 16.83L18.85 11.71C18.96 11.36 18.64 11.03 18.29 11.14L13.17 12.74C12.96 12.81 12.79 12.97 12.73 13.18L11.13 18.31C11.02 18.65 11.35 18.98 11.69 18.87L16.79 17.27C17 17.21 17.17 17.04 17.23 16.83Z" fill="white"/>
</svg>
