<svg width="271" height="156" viewBox="0 0 271 156" fill="none" xmlns="http://www.w3.org/2000/svg">
<rect x="0.5" y="0.5" width="270" height="155" rx="11.5" stroke="white" stroke-dasharray="6 6"/>
<path opacity="0.354986" fill-rule="evenodd" clip-rule="evenodd" d="M136 118C158.091 118 176 100.091 176 78C176 55.9086 158.091 38 136 38C113.909 38 96 55.9086 96 78C96 100.091 113.909 118 136 118Z" fill="white"/>
<path fill-rule="evenodd" clip-rule="evenodd" d="M136 112C154.778 112 170 96.7777 170 78C170 59.2223 154.778 44 136 44C117.222 44 102 59.2223 102 78C102 96.7777 117.222 112 136 112Z" fill="white"/>
<path fill-rule="evenodd" clip-rule="evenodd" d="M132.707 73.7071C132.317 74.0976 131.683 74.0976 131.293 73.7071C130.902 73.3166 130.902 72.6834 131.293 72.2929L135.293 68.2929C135.683 67.9024 136.317 67.9024 136.707 68.2929L140.707 72.2929C141.098 72.6834 141.098 73.3166 140.707 73.7071C140.317 74.0976 139.683 74.0976 139.293 73.7071L137 71.4142V76H135V71.4142L132.707 73.7071ZM135 76H132C130.343 76 129 77.3431 129 79V85C129 86.6569 130.343 88 132 88H140C141.657 88 143 86.6569 143 85V79C143 77.3431 141.657 76 140 76H137V81C137 81.5523 136.552 82 136 82C135.448 82 135 81.5523 135 81V76Z" fill="#FFC542"/>
</svg>
